<?xml version="1.0" standalone="no"?>
<!DOCTYPE svg PUBLIC "-//W3C//DTD SVG 20010904//EN"
 "http://www.w3.org/TR/2001/REC-SVG-20010904/DTD/svg10.dtd">
<svg version="1.0" xmlns="http://www.w3.org/2000/svg"
 width="512.000000pt" height="512.000000pt" viewBox="0 0 512.000000 512.000000"
 preserveAspectRatio="xMidYMid meet">
<metadata>
Created by potrace 1.14, written by Peter Selinger 2001-2017
</metadata>
<g transform="translate(0.000000,512.000000) scale(0.100000,-0.100000)"
fill="#000000" stroke="none">
<path d="M1359 5116 c-2 -2 -26 -6 -54 -9 -299 -33 -633 -195 -850 -413 -200
-201 -305 -374 -391 -642 -60 -188 -58 -136 -60 -1452 -2 -722 1 -1235 7
-1280 62 -485 346 -903 772 -1136 159 -86 284 -129 477 -164 100 -18 169 -19
1330 -17 l1225 2 120 28 c230 55 397 131 572 259 194 143 346 323 457 544 40
80 101 243 112 299 18 92 25 124 31 150 4 17 8 577 9 1245 2 1329 3 1300 -57
1507 -95 328 -293 606 -574 808 -33 23 -77 52 -97 64 -21 12 -54 30 -75 42
-93 52 -312 127 -421 144 -20 3 -62 9 -92 15 -51 8 -2432 14 -2441 6z m2446
-510 c70 -14 218 -67 275 -99 261 -144 448 -380 509 -642 6 -27 15 -61 19 -75
3 -14 8 -556 9 -1205 2 -1023 0 -1191 -13 -1260 -71 -372 -325 -660 -686 -779
-24 -8 -56 -17 -73 -20 -16 -4 -41 -10 -55 -13 -14 -4 -558 -9 -1210 -10
-1117 -2 -1190 -1 -1270 16 -47 10 -118 30 -157 45 -75 28 -215 102 -221 117
-2 5 -8 9 -13 9 -29 0 -186 162 -252 261 -63 96 -103 186 -138 311 l-24 83 -2
1190 c-2 1172 -2 1191 18 1285 66 302 260 556 525 688 106 53 152 69 259 92
86 18 144 19 1275 16 652 -1 1203 -6 1225 -10z"/>
<path d="M2711 3123 c0 -828 -2 -956 -16 -1007 -83 -315 -376 -505 -693 -450
-40 7 -99 25 -129 39 -31 14 -59 23 -62 20 -3 -3 -5 -147 -5 -320 l-1 -314 45
-11 c143 -32 364 -35 498 -6 242 53 435 158 607 330 103 103 154 171 217 286
36 66 93 208 102 251 2 13 11 53 18 89 21 95 21 104 22 1110 l1 925 -302 3
-301 2 -1 -947z"/>
</g>
</svg>
